<svg width="132" height="52" viewBox="0 0 132 52" fill="none" xmlns="http://www.w3.org/2000/svg">
<path d="M30.7341 11.8593L14.1033 0.185534C14.0852 0.173318 14.0715 0.155596 14.0643 0.134999C14.0571 0.114402 14.0567 0.0920285 14.0632 0.0711981C14.0697 0.0503677 14.0828 0.0321911 14.1005 0.0193667C14.1181 0.00654223 14.1394 -0.000247267 14.1613 6.8837e-06H49.1071C49.124 4.43816e-05 49.1405 0.00426678 49.1553 0.0122938C49.1701 0.0203208 49.1827 0.0319002 49.1919 0.0459896C49.2011 0.0600789 49.2066 0.076236 49.208 0.0930051C49.2094 0.109774 49.2066 0.126629 49.1999 0.142052L34.865 32.0528C34.8561 32.0722 34.8414 32.0882 34.823 32.0988C34.8045 32.1093 34.7832 32.1137 34.762 32.1115C34.7409 32.1093 34.721 32.1004 34.7051 32.0863C34.6893 32.0721 34.6783 32.0533 34.6737 32.0325L30.7776 11.9231C30.7721 11.8969 30.7564 11.874 30.7341 11.8593Z" fill="#62737D"/>
<path d="M99.6172 3.29315H89.2625C89.2176 3.29315 89.1813 3.32949 89.1813 3.37432V47.4082C89.1813 47.453 89.2176 47.4893 89.2625 47.4893H99.6172C99.6621 47.4893 99.6984 47.453 99.6984 47.4082V3.37432C99.6984 3.32949 99.6621 3.29315 99.6172 3.29315Z" fill="#62737D"/>
<path d="M85.1228 9.45035H74.768C74.7232 9.45035 74.6869 9.48669 74.6869 9.53152V47.7618C74.6869 47.8067 74.7232 47.843 74.768 47.843H85.1228C85.1676 47.843 85.204 47.8067 85.204 47.7618V9.53152C85.204 9.48669 85.1676 9.45035 85.1228 9.45035Z" fill="#62737D"/>
<path d="M25.9278 51.6666L17.8863 51.6579C17.8532 51.6579 17.8208 51.6484 17.793 51.6304C17.7652 51.6123 17.7433 51.5867 17.7298 51.5564L0.0147901 12.2274C0.00318412 12.2014 -0.00171719 12.1728 0.0005326 12.1444C0.00278239 12.1159 0.012112 12.0885 0.0276714 12.0646C0.0432307 12.0407 0.0645255 12.021 0.0896167 12.0074C0.114708 11.9939 0.142798 11.9868 0.171329 11.9868H16.6224C16.6555 11.9868 16.688 11.9963 16.7157 12.0143C16.7435 12.0323 16.7655 12.058 16.779 12.0883L30.2877 42.0887C30.2974 42.1106 30.3025 42.1343 30.3025 42.1583C30.3025 42.1822 30.2974 42.2059 30.2877 42.2278L26.0843 51.5651C26.0709 51.5954 26.0489 51.6211 26.0211 51.6391C25.9933 51.6571 25.9609 51.6666 25.9278 51.6666Z" fill="#62737D"/>
<path d="M61.5202 45.4456C61.524 45.2697 61.4583 45.2388 61.3231 45.3528C58.3082 47.9183 54.3687 48.7445 50.5422 48.0836C45.4894 47.211 42.4282 43.1671 42.9355 38.0187C43.4457 32.8268 48.5709 30.557 53.1048 30.3976C55.4084 30.3145 57.856 30.3048 60.4476 30.3686C60.4724 30.3694 60.4972 30.3651 60.5204 30.3559C60.5435 30.3468 60.5647 30.3331 60.5825 30.3155C60.6004 30.2979 60.6145 30.2769 60.6242 30.2536C60.6339 30.2304 60.6389 30.2054 60.6389 30.1802C60.6254 27.6581 59.3412 26.3053 56.7863 26.1217C53.5483 25.8898 51.1799 27.5596 48.8724 29.612C48.8588 29.624 48.8429 29.633 48.8257 29.6385C48.8085 29.644 48.7903 29.6458 48.7723 29.6439C48.7543 29.642 48.7369 29.6364 48.7212 29.6274C48.7055 29.6184 48.6918 29.6062 48.6811 29.5917L44.153 23.4316C44.0719 23.3214 44.0796 23.219 44.1762 23.1243C49.0144 18.3586 55.2644 16.2453 61.7202 17.8947C67.9586 19.4891 70.7241 24.1418 70.756 30.2497C70.7869 36.0939 70.7908 41.8172 70.7676 47.4197C70.7676 47.4566 70.7529 47.492 70.7268 47.5181C70.7007 47.5442 70.6653 47.5589 70.6284 47.5589L61.6448 47.5618C61.5405 47.5618 61.4893 47.5096 61.4912 47.4052L61.5202 45.4456ZM53.2729 37.9433C52.9463 38.7859 53.069 39.5474 53.641 40.2276C54.5832 41.3466 56.7515 41.2422 57.9836 40.7639C59.6997 40.0991 60.5819 38.7541 60.6302 36.7287C60.6341 36.6108 60.5771 36.5509 60.4592 36.549C58.7585 36.5258 57.1139 36.5354 55.5253 36.578C54.3658 36.6089 53.615 37.064 53.2729 37.9433Z" fill="#62737D"/>
<path d="M112.737 36.4562C112.72 36.456 112.702 36.4605 112.687 36.4692C112.671 36.4779 112.658 36.4905 112.649 36.5057C112.64 36.521 112.635 36.5384 112.635 36.5561C112.635 36.5739 112.639 36.5914 112.648 36.607C113.529 38.1521 114.79 38.9406 116.451 39.3609C119.816 40.2103 123.518 39.2942 126.614 37.4592C126.639 37.445 126.665 37.4357 126.693 37.4321C126.721 37.4285 126.749 37.4305 126.777 37.4381C126.804 37.4457 126.829 37.4586 126.851 37.4762C126.873 37.4938 126.891 37.5156 126.904 37.5404L130.481 44.2832C130.492 44.3024 130.495 44.3247 130.49 44.3461C130.485 44.3674 130.473 44.3863 130.455 44.3991C127.319 46.7395 123.81 48.0392 119.93 48.2981C115.257 48.6112 110.537 47.3821 107.047 44.2165C103.023 40.5678 101.436 35.8504 102.284 30.0642C102.686 27.3335 103.836 24.8917 105.734 22.7388C109.087 18.9413 113.372 17.1401 118.59 17.3353C122.985 17.4976 126.774 19.2717 129.313 22.8055C130.794 24.8694 131.651 27.0581 131.884 29.3714C132.126 31.7388 131.989 33.9941 131.473 36.1374C131.421 36.3499 131.285 36.4562 131.067 36.4562H112.737ZM112.421 29.8091L122.295 29.6874C122.299 29.6874 122.303 29.6866 122.306 29.6852C122.31 29.6837 122.313 29.6816 122.315 29.6789C122.318 29.6762 122.32 29.673 122.322 29.6695C122.323 29.666 122.324 29.6622 122.324 29.6584V29.6468C122.31 28.5136 121.778 27.4333 120.844 26.6434C119.911 25.8534 118.653 25.4187 117.347 25.4347H117.265C116.619 25.4426 115.979 25.5609 115.384 25.783C114.789 26.0051 114.25 26.3265 113.798 26.7289C113.345 27.1314 112.988 27.607 112.747 28.1285C112.506 28.6501 112.385 29.2073 112.392 29.7685V29.7801C112.392 29.7878 112.396 29.7952 112.401 29.8006C112.406 29.8061 112.414 29.8091 112.421 29.8091Z" fill="#62737D"/>
</svg>
